<svg width="125" height="52" viewBox="0 0 125 52" fill="none" xmlns="http://www.w3.org/2000/svg">
<path d="M10.4157 45.8419C9.84299 45.8419 9.27026 45.6421 8.79076 45.2425C8.4045 44.9095 7.9916 44.5233 7.5787 44.1104C6.36664 42.8983 5.28777 41.5797 4.35542 40.1945C3.42307 38.7959 2.61059 37.2909 1.97126 35.7325C1.31861 34.1475 0.825798 32.5225 0.492815 30.8843C0.159832 29.2194 0 27.5278 0 25.8496C0 24.158 0.159832 22.4664 0.492815 20.8149C0.825798 19.1633 1.31861 17.525 1.95794 15.9666C2.61059 14.4083 3.40975 12.9032 4.35542 11.5046C4.58185 11.1717 4.80828 10.8387 5.04803 10.519C5.86051 9.4135 7.40555 9.17376 8.51105 9.98623C9.61656 10.7987 9.85631 12.3438 9.04383 13.4493C8.84404 13.7156 8.65757 13.982 8.48442 14.2484C7.71189 15.3939 7.05925 16.6193 6.53979 17.8713C6.02034 19.1366 5.62076 20.4552 5.35437 21.8005C5.08798 23.1324 4.95479 24.5043 4.95479 25.8762C4.95479 27.2481 5.08798 28.62 5.35437 29.9519C5.62076 31.2839 6.02034 32.6025 6.53979 33.8811C7.05925 35.1331 7.71189 36.3585 8.4711 37.4907C9.21698 38.6095 10.0961 39.675 11.0684 40.6607C11.4013 40.9936 11.721 41.2867 12.014 41.5531C13.0529 42.4454 13.1595 44.0038 12.2671 45.0427C11.8009 45.5489 11.1083 45.8419 10.4157 45.8419Z" fill="#265C92"/>
<path d="M49.2417 28.4202C47.8698 28.4202 46.7643 27.3147 46.7643 25.9428V25.823C46.7643 24.4644 46.6311 23.0925 46.3647 21.7472C46.2315 21.0679 46.0584 20.3887 45.8586 19.736C45.459 18.4307 46.1916 17.0455 47.4969 16.6459C48.8021 16.2464 50.1874 16.9789 50.5869 18.2842C50.8267 19.0834 51.0398 19.9225 51.2129 20.7749C51.5459 22.4532 51.7058 24.1447 51.7058 25.823V25.9428C51.7191 27.3147 50.6003 28.4202 49.2417 28.4202Z" fill="#265C92"/>
<path d="M25.8663 51.6756C24.188 51.6756 22.4965 51.5025 20.8316 51.1828C19.7261 50.9697 18.6339 50.6767 17.5683 50.317C16.2764 49.8775 15.5837 48.4657 16.0233 47.1737C16.4628 45.8817 17.8614 45.1891 19.1667 45.6286C20.0191 45.9217 20.8982 46.1481 21.7906 46.3346C24.4944 46.8673 27.2382 46.8673 29.942 46.3346C31.2872 46.0682 32.6059 45.6686 33.8579 45.1491C35.1365 44.6164 36.3486 43.9637 37.4674 43.2178C38.5996 42.472 39.6651 41.5929 40.6374 40.6206C41.6097 39.6483 42.4755 38.5827 43.2347 37.4639C43.9673 36.3717 44.5933 35.2129 45.1127 33.9875C45.6455 32.7355 47.0973 32.1362 48.3493 32.6689C49.6013 33.2017 50.2007 34.6535 49.6679 35.9055C49.0286 37.4106 48.2561 38.8491 47.3504 40.1943C46.4313 41.5796 45.3525 42.8982 44.1404 44.1102C42.9283 45.3223 41.6097 46.4012 40.2112 47.3335C38.826 48.2659 37.3209 49.065 35.7492 49.7177C34.2042 50.357 32.5659 50.8498 30.901 51.1961C29.2227 51.5158 27.5312 51.6756 25.8663 51.6756Z" fill="#1A1D7C"/>
<path d="M44.2735 13.9021C43.5409 13.9021 42.8083 13.5691 42.3155 12.9431C41.8094 12.2904 41.25 11.6644 40.6506 11.0517C39.6783 10.0794 38.6127 9.20033 37.4806 8.45444C36.3485 7.69524 35.1231 7.0426 33.8577 6.52314C32.5924 6.00369 31.2738 5.60411 29.9285 5.33772C27.2514 4.80495 24.4543 4.80495 21.7771 5.33772C20.4452 5.60411 19.1266 6.00369 17.8479 6.53646C16.7291 7.00264 15.6769 7.54873 14.6379 8.2147L14.0253 8.60096H13.306C11.9341 8.60096 10.8286 7.49545 10.8286 6.12356C10.8286 5.20453 11.3347 4.40537 12.0806 3.97915C13.306 3.20663 14.6113 2.52734 15.9566 1.96793C17.5282 1.31528 19.1665 0.822469 20.8048 0.489486C24.1346 -0.163162 27.571 -0.163162 30.8875 0.489486C32.5391 0.822469 34.1641 1.31528 35.7358 1.95461C37.3074 2.60726 38.7992 3.40642 40.2111 4.35209C41.6096 5.28445 42.9282 6.36331 44.1269 7.57537C44.8728 8.32125 45.5788 9.12041 46.2048 9.93289C47.0439 11.0118 46.8441 12.5701 45.7652 13.4092C45.3257 13.7289 44.7929 13.9021 44.2735 13.9021Z" fill="#2D5CA2"/>
<path d="M60.7231 21.1743V25.6629H62.5611V26.6752H60.7231V26.6885H59.7241V21.1743H60.7231ZM60.7231 21.1743H59.7241H60.7231Z" fill="#333C87"/>
<path d="M71.6452 21.8537C72.178 22.3864 72.4977 23.0924 72.4977 23.9048C72.4977 24.7173 72.178 25.4232 71.6452 25.956C71.1124 26.4888 70.4065 26.8084 69.5941 26.8084C68.7816 26.8084 68.0756 26.4888 67.5429 25.956C67.0101 25.4232 66.6904 24.7173 66.6904 23.9048C66.6904 23.0924 67.0101 22.3864 67.5429 21.8537C68.0756 21.3209 68.7816 21.0012 69.5941 21.0012C70.3932 21.0012 71.0991 21.3076 71.6452 21.8537ZM69.5941 22.0002C69.0746 22.0002 68.6084 22.2133 68.2488 22.5729C67.8892 22.9325 67.6761 23.3987 67.6761 23.9182C67.6761 24.4509 67.8892 24.9171 68.2488 25.2634C68.5951 25.6097 69.0746 25.8228 69.5941 25.8228C70.1268 25.8228 70.593 25.623 70.9393 25.2634C71.2856 24.9038 71.4987 24.4509 71.4987 23.9182C71.4987 23.3987 71.2856 22.9192 70.9393 22.5729C70.5797 22.2133 70.1268 22.0002 69.5941 22.0002Z" fill="#333C87"/>
<path d="M79.5167 23.8782H82.5535V23.8915C82.5535 24.704 82.2871 25.4099 81.7543 25.9427C81.2082 26.4888 80.4623 26.8084 79.6365 26.8084C78.824 26.8084 78.1048 26.5021 77.5854 25.956C77.0526 25.4232 76.7329 24.7173 76.7329 23.9048C76.7329 23.0924 77.0526 22.3864 77.5854 21.8537C78.1181 21.3076 78.8507 21.0012 79.6365 21.0012C80.116 21.0012 80.5689 21.1078 80.9551 21.3209C81.3814 21.534 81.7277 21.827 81.994 22.2133L81.1816 22.7993C81.0084 22.5596 80.782 22.3731 80.5023 22.2266C80.2226 22.0801 79.9295 22.0135 79.6365 22.0135C79.1171 22.0135 78.6376 22.2266 78.2913 22.5862C77.945 22.9325 77.7319 23.412 77.7319 23.9315C77.7319 24.4642 77.945 24.9304 78.2913 25.2767C78.6376 25.623 79.1171 25.8361 79.6365 25.8361C80.1826 25.8361 80.6888 25.6097 81.0351 25.2634C81.1416 25.1569 81.2348 25.037 81.3148 24.9171L79.53 24.9038V23.8782H79.5167ZM79.5167 23.8782V24.8771V23.8782Z" fill="#333C87"/>
<path d="M87.748 21.1743V26.6885H86.749V21.1743H87.748ZM86.749 21.1743H87.748H86.749Z" fill="#333C87"/>
<path d="M94.4478 22.5062C94.3812 22.3863 94.288 22.3064 94.1681 22.2398C94.0083 22.1732 93.8618 22.1465 93.7153 22.1599C93.5821 22.1732 93.4755 22.2398 93.3956 22.333C93.3024 22.4262 93.2624 22.5328 93.2491 22.6527C93.2358 22.7459 93.2491 22.8258 93.289 22.8924C93.3157 22.959 93.3823 23.0389 93.4622 23.1189C93.5288 23.1721 93.6087 23.2121 93.6753 23.2387C93.7819 23.2787 93.8751 23.3053 93.9817 23.332C94.1148 23.3719 94.2614 23.3986 94.3945 23.4652C94.5544 23.5184 94.7142 23.6117 94.8607 23.7449C95.0872 23.918 95.247 24.1311 95.3535 24.3709C95.4734 24.6373 95.5134 24.877 95.4867 25.1434C95.4468 25.5296 95.3003 25.8626 95.0339 26.1423C94.7941 26.4087 94.4611 26.5819 94.0616 26.6352C93.7153 26.6884 93.329 26.6352 92.9827 26.462C92.663 26.3155 92.37 26.0757 92.1969 25.7294C92.1436 25.6229 92.1036 25.543 92.0637 25.4364C92.037 25.3432 92.0104 25.2366 91.9971 25.1168L92.9827 24.9836C92.996 25.0502 93.0093 25.1034 93.0227 25.1301C93.036 25.1567 93.036 25.21 93.0759 25.2633C93.1692 25.4098 93.2757 25.5163 93.4089 25.5829C93.5688 25.6628 93.7552 25.6895 93.9284 25.6628C94.0882 25.6362 94.2081 25.5696 94.3146 25.4631C94.4079 25.3698 94.4745 25.2366 94.4878 25.0768C94.4878 24.9702 94.4745 24.877 94.4345 24.7971C94.3946 24.7039 94.3413 24.6106 94.2214 24.544C94.1681 24.4774 94.0882 24.4508 94.0216 24.4108C93.9151 24.3709 93.8218 24.3442 93.7153 24.3176C93.5688 24.291 93.4356 24.2377 93.3024 24.1844C93.1425 24.1311 92.9827 24.0246 92.8362 23.9047C92.6231 23.7315 92.4899 23.5451 92.3833 23.3186C92.2768 23.0789 92.2235 22.8258 92.2501 22.5861C92.2768 22.2398 92.4366 21.9068 92.6764 21.6404C92.9161 21.4007 93.2091 21.2275 93.5954 21.1742C93.9417 21.121 94.288 21.1876 94.6077 21.3341C94.914 21.4806 95.1538 21.707 95.3402 22.0267L94.4478 22.5062ZM94.4478 22.5062L95.3269 22.0267L94.4478 22.5062Z" fill="#333C87"/>
<path d="M123.51 22.5062C123.444 22.3863 123.35 22.3064 123.231 22.2398C123.071 22.1732 122.924 22.1465 122.778 22.1599C122.645 22.1732 122.538 22.2398 122.458 22.333C122.365 22.4262 122.325 22.5328 122.312 22.6527C122.298 22.7459 122.312 22.8258 122.352 22.8924C122.378 22.959 122.445 23.0389 122.525 23.1189C122.591 23.1721 122.671 23.2121 122.738 23.2387C122.844 23.2787 122.938 23.3053 123.044 23.332C123.177 23.3719 123.324 23.3986 123.457 23.4652C123.617 23.5184 123.777 23.6117 123.923 23.7449C124.15 23.918 124.309 24.1311 124.416 24.3709C124.536 24.6373 124.576 24.877 124.549 25.1434C124.509 25.5296 124.363 25.8626 124.096 26.1423C123.857 26.4087 123.524 26.5819 123.124 26.6352C122.778 26.6884 122.392 26.6352 122.045 26.462C121.726 26.3155 121.433 26.0757 121.259 25.7294C121.206 25.6229 121.166 25.543 121.126 25.4364C121.1 25.3432 121.073 25.2366 121.06 25.1168L122.045 24.9836C122.059 25.0502 122.072 25.1034 122.085 25.1301C122.098 25.1567 122.098 25.21 122.138 25.2633C122.232 25.4098 122.338 25.5163 122.471 25.5829C122.631 25.6628 122.818 25.6895 122.991 25.6628C123.151 25.6362 123.271 25.5696 123.377 25.4631C123.47 25.3698 123.537 25.2366 123.55 25.0768C123.55 24.9702 123.537 24.877 123.497 24.7971C123.457 24.7039 123.404 24.6106 123.284 24.544C123.231 24.4774 123.151 24.4508 123.084 24.4108C122.978 24.3709 122.884 24.3442 122.778 24.3176C122.631 24.291 122.498 24.2377 122.365 24.1844C122.205 24.1311 122.045 24.0246 121.899 23.9047C121.686 23.7315 121.552 23.5451 121.446 23.3186C121.339 23.0789 121.286 22.8258 121.313 22.5861C121.339 22.2398 121.499 21.9068 121.739 21.6404C121.979 21.4007 122.272 21.2275 122.658 21.1742C123.004 21.121 123.351 21.1876 123.67 21.3341C123.977 21.4806 124.216 21.707 124.403 22.0267L123.51 22.5062ZM123.51 22.5062L124.389 22.0267L123.51 22.5062Z" fill="#333C87"/>
<path d="M99.6821 21.1743H102.799V22.1733H101.72V26.6885H100.721V22.1733H99.6821V21.1743ZM99.6821 21.1743V22.1733V21.1743Z" fill="#333C87"/>
<path d="M108.007 21.1743V26.6885H107.008V21.1743H108.007ZM107.008 21.1743H108.007H107.008Z" fill="#333C87"/>
<path d="M117.61 25.5298C117.331 25.9294 116.984 26.249 116.545 26.4755C116.118 26.7019 115.666 26.8084 115.159 26.8084C114.347 26.8084 113.641 26.4888 113.108 25.956C112.576 25.4232 112.256 24.7173 112.256 23.9048C112.256 23.0924 112.576 22.3864 113.108 21.8537C113.641 21.3209 114.347 21.0012 115.159 21.0012C115.639 21.0012 116.092 21.1211 116.478 21.3209C116.891 21.534 117.237 21.827 117.517 22.2133L116.705 22.7993C116.531 22.5596 116.305 22.3731 116.025 22.2266C115.746 22.0801 115.452 22.0135 115.159 22.0135C114.64 22.0135 114.174 22.2266 113.814 22.5862C113.455 22.9458 113.241 23.412 113.241 23.9315C113.241 24.4642 113.455 24.9304 113.814 25.2767C114.161 25.623 114.613 25.8361 115.159 25.8361C115.506 25.8361 115.799 25.7562 116.079 25.6097C116.358 25.4632 116.598 25.2634 116.784 24.997L117.61 25.5298ZM116.798 24.9704L117.624 25.5298L116.798 24.9704Z" fill="#333C87"/>
<path d="M21.5106 20.4284C22.1899 20.7614 22.5362 21.1343 22.5362 21.5339C22.5362 21.7204 22.4563 22.0001 22.2831 22.3597L17.5015 32.0562C17.3683 32.3093 17.1818 32.509 16.9155 32.6689C16.6624 32.8287 16.3827 32.9086 16.1163 32.9086H15.9431C15.6501 32.9086 15.3837 32.8287 15.1173 32.6689C14.8643 32.509 14.6645 32.3093 14.5313 32.0562L9.74965 22.3597C9.5765 21.9868 9.49658 21.7071 9.49658 21.5339C9.49658 21.1343 9.84289 20.7614 10.5222 20.4284C10.9084 20.2286 11.1881 20.1354 11.4012 20.1354C11.601 20.1354 11.7609 20.162 11.8541 20.202C11.9607 20.2419 12.0539 20.3352 12.1471 20.4417C12.2537 20.5749 12.3469 20.7348 12.4268 20.8946C12.5068 21.0677 12.7332 21.5472 13.0928 22.3331C13.4524 23.1189 13.8387 23.958 14.2383 24.8504C14.6512 25.7428 15.0374 26.5819 15.397 27.3678C15.7567 28.1536 15.9698 28.5932 16.0097 28.6864L19.4728 21.1077C19.566 20.8946 19.6459 20.7214 19.7125 20.5882C19.9256 20.2819 20.1787 20.1221 20.4717 20.1221C20.7914 20.1354 21.1377 20.2286 21.5106 20.4284Z" fill="#333C87"/>
<path d="M28.2105 21.1341L32.8856 30.7906C33.0854 31.1769 33.1786 31.4832 33.1786 31.6697C33.1786 32.0826 32.8456 32.4556 32.1796 32.7885C31.7934 32.9883 31.4737 33.0816 31.2473 33.0816C31.0209 33.0816 30.8344 33.0283 30.6879 32.9217C30.5414 32.8152 30.4348 32.7086 30.3815 32.5888C30.3149 32.4689 30.235 32.2957 30.1151 32.0693L29.2094 30.2046H24.4145L23.5088 32.0693C23.3889 32.2957 23.309 32.4689 23.2424 32.5754C23.1758 32.682 23.0692 32.7885 22.936 32.8951C22.7895 33.0016 22.603 33.0549 22.3766 33.0549C22.1502 33.0549 21.8438 32.9617 21.4443 32.7619C20.7783 32.4422 20.4453 32.0693 20.4453 31.6564C20.4453 31.4566 20.5385 31.1636 20.7383 30.7773L25.4134 21.0942C25.5466 20.8278 25.7331 20.6147 25.9995 20.4548C26.2525 20.295 26.5322 20.2151 26.8253 20.2151C27.4513 20.2417 27.9175 20.5348 28.2105 21.1341ZM26.812 25.2898L25.6665 27.6606H27.9707L26.812 25.2898Z" fill="#333C87"/>
<path d="M37.2008 30.3647H41.9158C42.3021 30.3647 42.5685 30.4047 42.7416 30.4979C42.9148 30.5779 43.0347 30.7244 43.0879 30.9108C43.1412 31.0973 43.1678 31.3371 43.1678 31.6434C43.1678 31.9497 43.1412 32.1895 43.0879 32.376C43.0347 32.5624 42.9281 32.6823 42.7949 32.7622C42.5685 32.8821 42.2755 32.9354 41.8892 32.9354H35.6557C34.8433 32.9354 34.3771 32.7223 34.2306 32.2827C34.164 32.0963 34.124 31.8032 34.124 31.4037V21.7738C34.124 21.5074 34.1373 21.3076 34.1507 21.1744C34.164 21.0412 34.2173 20.8947 34.3105 20.7215C34.4703 20.4152 34.9232 20.2554 35.6557 20.2554C36.4682 20.2554 36.9477 20.4685 37.0942 20.8947C37.1475 21.0945 37.1741 21.3875 37.1741 21.8004V30.3647H37.2008Z" fill="#333C87"/>
</svg>
